<?xml version="1.0" encoding="UTF-8"?>
<svg id="Calque_2" data-name="Calque 2" xmlns="http://www.w3.org/2000/svg" xmlns:xlink="http://www.w3.org/1999/xlink" viewBox="0 0 841.16 137.31">
  <defs>
    <style>
      .cls-1 {
        fill: url(#Dégradé_sans_nom_53);
      }
    </style>
    <linearGradient id="Dégradé_sans_nom_53" data-name="Dégradé sans nom 53" x1="222.82" y1="118.24" x2="299.73" y2="25.61" gradientUnits="userSpaceOnUse">
      <stop offset="0" stop-color="#d7c684"/>
      <stop offset=".25" stop-color="#e7aeca"/>
      <stop offset=".53" stop-color="#4591cd"/>
      <stop offset=".73" stop-color="#37679d"/>
      <stop offset="1" stop-color="#283a69"/>
    </linearGradient>
  </defs>
  <g id="Calque_1-2" data-name="Calque 1">
    <circle cx="252.32" cy="88.49" r="48.81"/>
    <path class="cls-1" d="M269.9,93.67l-20.33,18.17c-4.51,4.03-11.66.83-11.66-5.22h0c0-2,.85-3.9,2.33-5.23l8.62-7.7c3.12-2.79,3.11-7.67-.01-10.45l-8.59-7.64c-1.49-1.33-2.35-3.23-2.35-5.23h0c0-6.04,7.14-9.24,11.65-5.23l20.33,18.07c3.13,2.78,3.13,7.66.01,10.45Z"/>
    <g>
      <path d="M489.28,104.18l13.93,7.56c-8.09,11.43-21.43,18.86-37.32,18.86-26.39,0-45.75-20.48-45.75-45.73s19.36-45.74,45.75-45.74c15.89,0,29.23,7.44,37.32,18.86l-13.93,7.56c-5.24-6.92-13.46-11.35-23.39-11.35-17.51,0-29.68,13.73-29.68,30.66s12.17,30.65,29.68,30.65c9.93,0,18.14-4.43,23.39-11.34Z"/>
      <path d="M808.23,84.87c0,25.25-19.36,45.73-45.73,45.73s-45.75-20.48-45.75-45.73,19.36-45.74,45.75-45.74,45.73,20.48,45.73,45.74ZM792.17,84.87c0-16.93-12.19-30.66-29.68-30.66s-29.68,13.73-29.68,30.66,12.17,30.65,29.68,30.65,29.68-13.73,29.68-30.65Z"/>
      <path d="M705.4,84.87c0,25.25-19.36,45.73-45.73,45.73s-45.75-20.48-45.75-45.73,19.36-45.74,45.75-45.74,45.73,20.48,45.73,45.74ZM689.35,84.87c0-16.93-12.19-30.66-29.68-30.66s-29.68,13.73-29.68,30.66,12.17,30.65,29.68,30.65,29.68-13.73,29.68-30.65Z"/>
      <path d="M825.59,126.51V0h15.57v126.51h-15.57Z"/>
      <path d="M404.26,53.05l-11.22,10.69c-4.81-5-15.29-10.08-26.72-10.08-10.55,0-19.95,2.79-19.95,10.71s9.46,9.51,21.25,10.91c25.22,2.99,39.08,9.52,39.08,28.98s-16.37,26.28-39.41,26.28c-21.16,0-33.12-6.89-41.37-13.63l8.81-13.05c4.29,3.61,15.28,12.08,32.56,12.08,14.69,0,22.87-3.6,22.87-11.68s-8.31-10.94-24.18-12.67c-21.52-2.36-36.17-7.47-36.17-27.22s18.83-25.31,36.5-25.31c19.43,0,30.82,6.46,37.94,13.99Z"/>
      <path d="M598.99,78.48v50.11h-15.57v-51.09c0-12.09-9.81-21.9-21.89-21.9s-21.9,9.81-21.9,21.9v51.09h-15.57V2.08h15.57v46c6.17-4.44,13.72-7.07,21.9-7.07,20.69,0,37.46,16.77,37.46,37.47Z"/>
    </g>
    <g>
      <path d="M82.49,128.66h-14.71v-28.28c0-4.63-2.49-8.92-6.48-11.22l-33.68-21.17c-2.27-1.31-3.68-3.74-3.68-6.37v-7.93c0-4.07,3.29-7.36,7.36-7.36l22.51-.38c10.56,0,14.67-3.59,14.67-12.83,0-3.49-.91-6.02-2.76-7.75-3.52-3.25-10.14-3.43-11.7-3.32l-39.31.03v106.58H0V14.72c0-4.07,3.29-7.36,7.36-7.36h46.08c.82-.09,13.55-.86,22.27,7.2,3.42,3.15,7.49,8.94,7.49,18.55,0,8.28-2.86,27.55-29.39,27.55h-12.42l27.26,15.75c8.54,4.91,13.85,14.1,13.85,23.97v28.28Z"/>
      <path d="M110.26,87.29c.18,16.25,9.94,29.34,26.54,29.34,11.42,0,19.61-6.21,23.66-15.37h16.13c-5.24,17.08-19.82,29.34-39.79,29.34-25.26,0-41.92-19.6-41.92-43.78s16.66-43.78,41.92-43.78,41.92,19.6,41.92,43.78c0,.16,0,.31,0,.47h-68.45ZM112.06,75.18h49.49c-3.55-10.68-12.19-18.17-24.74-18.17s-21.19,7.49-24.74,18.17Z"/>
    </g>
  </g>
</svg>